<svg xmlns="http://www.w3.org/2000/svg" viewBox="0 0 800 500" width="800" height="500">
  <defs>
    <linearGradient id="g" x1="0" y1="0" x2="1" y2="0">
      <stop offset="0%" stop-color="#22d3ee" stop-opacity="0.15"/>
      <stop offset="50%" stop-color="#7c3aed" stop-opacity="0.3"/>
      <stop offset="100%" stop-color="#22d3ee" stop-opacity="0.15"/>
    </linearGradient>
  </defs>
  <rect width="800" height="500" fill="#030014"/>
  <rect width="800" height="500" fill="url(#g)"/>
  <g stroke="#22d3ee" stroke-width="2" stroke-linecap="round" fill="none" transform="translate(80,220)">
    <line x1="0"   y1="20"  x2="0"   y2="-20" stroke-opacity="0.6"/>
    <line x1="20"  y1="40"  x2="20"  y2="-40" stroke-opacity="0.7"/>
    <line x1="40"  y1="65"  x2="40"  y2="-65" stroke-opacity="0.85"/>
    <line x1="60"  y1="35"  x2="60"  y2="-35" stroke-opacity="0.65"/>
    <line x1="80"  y1="55"  x2="80"  y2="-55" stroke-opacity="0.85"/>
    <line x1="100" y1="80"  x2="100" y2="-80"/>
    <line x1="120" y1="50"  x2="120" y2="-50" stroke-opacity="0.85"/>
    <line x1="140" y1="25"  x2="140" y2="-25" stroke-opacity="0.6"/>
    <line x1="160" y1="60"  x2="160" y2="-60" stroke-opacity="0.85"/>
    <line x1="180" y1="90"  x2="180" y2="-90"/>
    <line x1="200" y1="40"  x2="200" y2="-40" stroke-opacity="0.7"/>
    <line x1="220" y1="70"  x2="220" y2="-70" stroke-opacity="0.85"/>
    <line x1="240" y1="100" x2="240" y2="-100"/>
    <line x1="260" y1="55"  x2="260" y2="-55" stroke-opacity="0.85"/>
    <line x1="280" y1="30"  x2="280" y2="-30" stroke-opacity="0.6"/>
    <line x1="300" y1="80"  x2="300" y2="-80"/>
    <line x1="320" y1="45"  x2="320" y2="-45" stroke-opacity="0.7"/>
    <line x1="340" y1="60"  x2="340" y2="-60" stroke-opacity="0.85"/>
    <line x1="360" y1="35"  x2="360" y2="-35" stroke-opacity="0.65"/>
    <line x1="380" y1="50"  x2="380" y2="-50" stroke-opacity="0.85"/>
    <line x1="400" y1="25"  x2="400" y2="-25" stroke-opacity="0.6"/>
    <line x1="420" y1="40"  x2="420" y2="-40" stroke-opacity="0.7"/>
    <line x1="440" y1="20"  x2="440" y2="-20" stroke-opacity="0.5"/>
    <line x1="460" y1="35"  x2="460" y2="-35" stroke-opacity="0.6"/>
    <line x1="480" y1="15"  x2="480" y2="-15" stroke-opacity="0.4"/>
    <line x1="500" y1="25"  x2="500" y2="-25" stroke-opacity="0.5"/>
    <line x1="520" y1="10"  x2="520" y2="-10" stroke-opacity="0.35"/>
    <line x1="540" y1="20"  x2="540" y2="-20" stroke-opacity="0.5"/>
    <line x1="560" y1="8"   x2="560" y2="-8"  stroke-opacity="0.3"/>
    <line x1="580" y1="12"  x2="580" y2="-12" stroke-opacity="0.35"/>
    <line x1="600" y1="6"   x2="600" y2="-6"  stroke-opacity="0.25"/>
    <line x1="620" y1="10"  x2="620" y2="-10" stroke-opacity="0.3"/>
    <line x1="640" y1="4"   x2="640" y2="-4"  stroke-opacity="0.2"/>
  </g>
  <text x="400" y="430" text-anchor="middle" font-family="ui-monospace, monospace" font-size="22" fill="#e2e8f0" font-weight="700">EDITH</text>
  <text x="400" y="455" text-anchor="middle" font-family="ui-monospace, monospace" font-size="11" fill="#94a3b8">transcription · IA · scoring</text>
</svg>
